<?xml version="1.0" encoding="UTF-8"?>
<svg width="100px" height="13px" viewBox="0 0 100 13" version="1.1" xmlns="http://www.w3.org/2000/svg" xmlns:xlink="http://www.w3.org/1999/xlink">
    <!-- Generator: Sketch 43.1 (39012) - http://www.bohemiancoding.com/sketch -->
    <title>Group Copy</title>
    <desc>Created with Sketch.</desc>
    <defs></defs>
    <g id="Page-2" stroke="none" stroke-width="1" fill="none" fill-rule="evenodd">
        <g id="Artboard-Copy" transform="translate(-743.000000, -132.000000)">
            <g id="Group-Copy" transform="translate(743.000000, 132.000000)">
                <path d="M1.38554217,0.120481928 L98.6746988,0.120481928 L98.6746988,10.7831325 L1.38554217,10.7831325 L1.38554217,0.120481928 Z M23.4638554,8.91566265 C24.9111076,8.91566265 26.0843373,7.74243293 26.0843373,6.29518072 C26.0843373,4.84792852 24.9111076,3.6746988 23.4638554,3.6746988 C22.0166032,3.6746988 20.8433735,4.84792852 20.8433735,6.29518072 C20.8433735,7.74243293 22.0166032,8.91566265 23.4638554,8.91566265 Z M14.6084337,8.91566265 C16.0556859,8.91566265 17.2289157,7.74243293 17.2289157,6.29518072 C17.2289157,4.84792852 16.0556859,3.6746988 14.6084337,3.6746988 C13.1611815,3.6746988 11.9879518,4.84792852 11.9879518,6.29518072 C11.9879518,7.74243293 13.1611815,8.91566265 14.6084337,8.91566265 Z M41.1746988,8.91566265 C42.621951,8.91566265 43.7951807,7.74243293 43.7951807,6.29518072 C43.7951807,4.84792852 42.621951,3.6746988 41.1746988,3.6746988 C39.7274466,3.6746988 38.5542169,4.84792852 38.5542169,6.29518072 C38.5542169,7.74243293 39.7274466,8.91566265 41.1746988,8.91566265 Z M32.3192771,8.91566265 C33.7665293,8.91566265 34.939759,7.74243293 34.939759,6.29518072 C34.939759,4.84792852 33.7665293,3.6746988 32.3192771,3.6746988 C30.8720249,3.6746988 29.6987952,4.84792852 29.6987952,6.29518072 C29.6987952,7.74243293 30.8720249,8.91566265 32.3192771,8.91566265 Z M58.8855422,8.91566265 C60.3327944,8.91566265 61.5060241,7.74243293 61.5060241,6.29518072 C61.5060241,4.84792852 60.3327944,3.6746988 58.8855422,3.6746988 C57.43829,3.6746988 56.2650602,4.84792852 56.2650602,6.29518072 C56.2650602,7.74243293 57.43829,8.91566265 58.8855422,8.91566265 Z M50.0301205,8.91566265 C51.4773727,8.91566265 52.6506024,7.74243293 52.6506024,6.29518072 C52.6506024,4.84792852 51.4773727,3.6746988 50.0301205,3.6746988 C48.5828683,3.6746988 47.4096386,4.84792852 47.4096386,6.29518072 C47.4096386,7.74243293 48.5828683,8.91566265 50.0301205,8.91566265 Z M76.5963855,8.91566265 C78.0436377,8.91566265 79.2168675,7.74243293 79.2168675,6.29518072 C79.2168675,4.84792852 78.0436377,3.6746988 76.5963855,3.6746988 C75.1491333,3.6746988 73.9759036,4.84792852 73.9759036,6.29518072 C73.9759036,7.74243293 75.1491333,8.91566265 76.5963855,8.91566265 Z M85.4518072,8.91566265 C86.8990594,8.91566265 88.0722892,7.74243293 88.0722892,6.29518072 C88.0722892,4.84792852 86.8990594,3.6746988 85.4518072,3.6746988 C84.004555,3.6746988 82.8313253,4.84792852 82.8313253,6.29518072 C82.8313253,7.74243293 84.004555,8.91566265 85.4518072,8.91566265 Z M67.7409639,8.91566265 C69.1882161,8.91566265 70.3614458,7.74243293 70.3614458,6.29518072 C70.3614458,4.84792852 69.1882161,3.6746988 67.7409639,3.6746988 C66.2937116,3.6746988 65.1204819,4.84792852 65.1204819,6.29518072 C65.1204819,7.74243293 66.2937116,8.91566265 67.7409639,8.91566265 Z" id="Combined-Shape" fill="#DE7E42"></path>
                <path d="M95.3313253,12.1686747 C92.7528875,12.1686747 90.6626506,10.0784378 90.6626506,7.5 C90.6626506,4.92156216 92.7528875,2.8313253 95.3313253,2.8313253 C97.9097631,2.8313253 100,4.92156216 100,7.5 C100,10.0784378 97.9097631,12.1686747 95.3313253,12.1686747 Z M95.3313253,8.85542169 C96.079904,8.85542169 96.686747,8.24857873 96.686747,7.5 C96.686747,6.75142127 96.079904,6.14457831 95.3313253,6.14457831 C94.5827466,6.14457831 93.9759036,6.75142127 93.9759036,7.5 C93.9759036,8.24857873 94.5827466,8.85542169 95.3313253,8.85542169 Z" id="Combined-Shape" fill="#4A4A4A"></path>
                <path d="M4.6686747,12.1686747 C2.09023686,12.1686747 0,10.0784378 0,7.5 C0,4.92156216 2.09023686,2.8313253 4.6686747,2.8313253 C7.24711254,2.8313253 9.3373494,4.92156216 9.3373494,7.5 C9.3373494,10.0784378 7.24711254,12.1686747 4.6686747,12.1686747 Z M4.6686747,8.85542169 C5.41725343,8.85542169 6.02409639,8.24857873 6.02409639,7.5 C6.02409639,6.75142127 5.41725343,6.14457831 4.6686747,6.14457831 C3.92009597,6.14457831 3.31325301,6.75142127 3.31325301,7.5 C3.31325301,8.24857873 3.92009597,8.85542169 4.6686747,8.85542169 Z" id="Combined-Shape-Copy" fill="#4A4A4A"></path>
            </g>
        </g>
    </g>
</svg>